<svg xmlns="http://www.w3.org/2000/svg" width="1600" height="900" viewBox="0 0 1600 900" fill="none">
  <defs>
    <linearGradient id="bg" x1="120" y1="90" x2="1480" y2="810" gradientUnits="userSpaceOnUse">
      <stop stop-color="#F8F3E9"/>
      <stop offset="1" stop-color="#EDDDCC"/>
    </linearGradient>
    <linearGradient id="panel" x1="910" y1="206" x2="1310" y2="714" gradientUnits="userSpaceOnUse">
      <stop stop-color="#FFF9F2"/>
      <stop offset="1" stop-color="#FBF1E6"/>
    </linearGradient>
  </defs>
  <rect width="1600" height="900" fill="#F2E7D8"/>
  <rect x="72" y="72" width="1456" height="756" rx="68" fill="url(#bg)"/>
  <circle cx="1310" cy="182" r="150" fill="#D6E6DE"/>
  <circle cx="310" cy="746" r="180" fill="#F0D7C3"/>
  <text x="168" y="174" fill="#B77947" font-size="28" font-family="Avenir Next, sans-serif" letter-spacing="8">ZEN WISDOM</text>
  <text x="166" y="312" fill="#27302E" font-size="92" font-family="Georgia, serif">Daily quotes,</text>
  <text x="166" y="404" fill="#27302E" font-size="92" font-family="Georgia, serif">starter meditation,</text>
  <text x="166" y="496" fill="#27302E" font-size="92" font-family="Georgia, serif">and local reflection.</text>
  <text x="170" y="590" fill="#5F6967" font-size="34" font-family="Avenir Next, sans-serif">A calm iPhone-first rhythm built around quotes, journaling, and gentle guided sessions.</text>
  <rect x="170" y="640" width="240" height="58" rx="29" fill="#4F8380"/>
  <rect x="430" y="640" width="214" height="58" rx="29" fill="#FFF9F2" stroke="#D6E6DE" stroke-width="3"/>
  <text x="220" y="677" fill="#F8F9F8" font-size="26" font-family="Avenir Next, sans-serif" font-weight="700">Support</text>
  <text x="485" y="677" fill="#27302E" font-size="26" font-family="Avenir Next, sans-serif" font-weight="700">Privacy</text>

  <rect x="930" y="184" width="420" height="532" rx="46" fill="url(#panel)" stroke="#D4DED8" stroke-width="4"/>
  <text x="978" y="246" fill="#5F6967" font-size="22" font-family="Avenir Next, sans-serif" letter-spacing="5">QUOTE OF THE DAY</text>
  <text x="978" y="332" fill="#27302E" font-size="42" font-family="Georgia, serif">“Quiet the mind,</text>
  <text x="978" y="384" fill="#27302E" font-size="42" font-family="Georgia, serif">steady the breath.”</text>
  <text x="978" y="434" fill="#4F8380" font-size="24" font-family="Avenir Next, sans-serif" font-weight="700">Zen Wisdom</text>
  <rect x="978" y="468" width="134" height="42" rx="21" fill="#D6E6DE"/>
  <rect x="1128" y="468" width="154" height="42" rx="21" fill="#F2E1D1"/>
  <text x="1010" y="495" fill="#27302E" font-size="18" font-family="Avenir Next, sans-serif">Calm</text>
  <text x="1164" y="495" fill="#27302E" font-size="18" font-family="Avenir Next, sans-serif">Presence</text>
  <rect x="978" y="548" width="324" height="108" rx="28" fill="#FFFDF9" stroke="#D9CCC0" stroke-width="3"/>
  <text x="1006" y="598" fill="#27302E" font-size="28" font-family="Georgia, serif">Journal rhythms</text>
  <text x="1006" y="636" fill="#5F6967" font-size="20" font-family="Avenir Next, sans-serif">Prompts, moods, and local history</text>
</svg>
